<svg id="Objeto" xmlns="http://www.w3.org/2000/svg" viewBox="0 0 325.91 52.62" fill="none"><path d="M246.56,262.88c-.73-1.62.07-4.17-3.38-4.39,2.67-.57,3.06-1.9,3-3.83-.13-4.78,0-9.56,0-14.34,1.24,5.17.37,10.42.5,15.62.05,2.2.47,3.34,2.16,2.94C246.28,258.55,246.67,260.89,246.56,262.88Z" transform="translate(-92.64 -230.38)"/><path d="M309,258.61c-1.57-2.23-.5-4.75-.76-7.12-.42-3.75.74-7.59-.75-11.27,1.29-.26,1.37.52,1.41,1.48.24,5.57.53,11.14.76,16.71C309.68,258.47,309.24,258.54,309,258.61Z" transform="translate(-92.64 -230.38)"/><path d="M218.52,258.68a38.54,38.54,0,0,1-.52,9.83c-.05.24-1.1.29-1.69.43,2.27-3.86,2.16-8,.42-9C217.19,260.14,217.83,259.36,218.52,258.68Z" transform="translate(-92.64 -230.38)"/><path d="M303.73,240.22c-1.56,5.08-.26,10.31-.79,15.44-1.07-4.78-.27-9.61-.43-14.42A1,1,0,0,1,303.73,240.22Z" transform="translate(-92.64 -230.38)"/><path d="M298.73,266.71c2.94.23,2.2,1.93,1.47,3.62Z" transform="translate(-92.64 -230.38)"/><path d="M309,266.5l0-7.14A9.78,9.78,0,0,1,309,266.5Z" transform="translate(-92.64 -230.38)"/><path d="M293.89,250.51c1.78,1.77.53,4,.83,5.93C293.27,254.62,294.43,252.45,293.89,250.51Z" transform="translate(-92.64 -230.38)"/><path d="M302.92,255.71c.91,0,2-.36,2.48.91-.79.9-1.78.29-2.65.38C302.8,256.57,302.86,256.14,302.92,255.71Z" transform="translate(-92.64 -230.38)"/><path d="M285.82,261c.23.54.71,1.13-.09,1.55-1,.27-1.83-1.19-.65-1.72Z" transform="translate(-92.64 -230.38)"/><path d="M309,272.41v-4A3.24,3.24,0,0,1,309,272.41Z" transform="translate(-92.64 -230.38)"/><path d="M291.77,273.21c.2-1.39-.5-2.91.57-4.18C292.11,270.42,292.87,271.94,291.77,273.21Z" transform="translate(-92.64 -230.38)"/><path d="M308.23,274c0-.22,0-.43,0-.65l2.79.23C310,274.41,309.1,274,308.23,274Z" transform="translate(-92.64 -230.38)"/><path d="M300.33,272.71l1.15,1.24C300.41,274.16,300.06,273.72,300.33,272.71Z" transform="translate(-92.64 -230.38)"/><path d="M398.63,259.31l-.23,0-.23,0c.06-.42.13-.84.19-1.26Z" transform="translate(-92.64 -230.38)"/><path d="M292.55,268.88c.17-.45.33-.91.5-1.37C293,268,293.56,268.73,292.55,268.88Z" transform="translate(-92.64 -230.38)"/><path d="M300,271.34v.37l-.69-.29Z" transform="translate(-92.64 -230.38)"/><path d="M287.44,244.54c.18.41.4.47,0,.71A.7.7,0,0,1,287.44,244.54Z" transform="translate(-92.64 -230.38)"/><path d="M300.55,255.6l-.48-.85Z" transform="translate(-92.64 -230.38)"/><path d="M302,259.75a2.67,2.67,0,0,1-.4-.77c-.07-.36.12-.73.56-.55C302.79,258.74,303.15,259.86,302,259.75Z" transform="translate(-92.64 -230.38)"/><path d="M285.07,265.45l.49.44c-.26.17-.54.5-.73.08A2.21,2.21,0,0,1,285.07,265.45Z" transform="translate(-92.64 -230.38)"/><path d="M218.52,258.68c2.7-1.39,2.84-4.2,3.63-6.59,1-3,1.8-6.1,2.61-9.17.53-2,1.52-2.93,3.89-2.93s3,1.12,3.68,3.07c2,5.68,3.1,11.64,5.78,17.18,1.3,2.67-.54,6.51-.42,9.64s-.55,3.43-3.14,3.57c-2.39.13-2.94-.74-3-2.91,0-4.8-.9-5.87-5.43-4.19-1.61.6-5.67,1.75-5.31,5.42.25,2.57-1.4,2.19-3,2.35-2.25.23-2.51-.93-2.29-2.61.12-.89-.49-2,.78-2.57.59-.14,1.64-.19,1.69-.43A38.54,38.54,0,0,0,218.52,258.68Zm9.95-8.32L226,260.41c-.35,1.43.14,2,1.66,1.93,2.84-.06,3.23-1.66,2.71-3.9C229.84,256,229.23,253.5,228.47,250.36Z" transform="translate(-92.64 -230.38)"/><path d="M210.13,258.27c4.48,1,2.81,4.29,3.13,6.77.21,1.6-.25,2.6-2.15,2.6.81,1.43,3.34,0,3.37,2.2,0,1.07.6,2.59-.36,3.12-1.76,1-3.88.42-5.83.32-1.56-.07-.92-1.45-1-2.31-.24-2.17,1.07-4.94-2.52-5.74-.24-.05-.19-1.35-.29-2.07-.13-1,.49-2.32-1.41-2.37s-3.07.61-3.1,2.35c-.05,2.1-.82,4.26.7,6.34.85,1.15,1,3.14-.11,4.11-1.32,1.16-3.35.57-5,.39-1.9-.21-1-1.94-1.06-3-.12-2.7-.11-5.41,0-8.11,0-1-.74-2.63,1.34-2.82.37,0,1.12-.54.2-.64-2.63-.29-1.49-2.19-1.52-3.36-.14-4.55-.06-9.1-.05-13.65,0-1.09-.19-2.36,1.57-2.27,5.69.58,15.74-2.27,17.59,5.27a19.54,19.54,0,0,1-.09,9.46C213.1,256.41,212.67,258.19,210.13,258.27Zm-9.21-7.83c1.12,1.38-1.84,4.73,2.5,4.65,3.35-.05,4.59-1.45,4.5-5.41-.06-2.65-1.34-3.73-4.17-3.84C199.57,245.68,201.6,248.65,200.92,250.44Z" transform="translate(-92.64 -230.38)"/><path d="M300.55,255.6c-.24,2,1.79.43,2.2,1.4.87-.09,1.86.52,2.65-.38-.52-1.27-1.57-.91-2.48-.91l0-.05c.53-5.13-.77-10.36.79-15.44h3.77c1.49,3.68.33,7.52.75,11.27.26,2.37-.81,4.89.76,7.12,0,2.63,0,5.26,0,7.89-.64.45-2,0-1.91,1.22,0,.27,1.24.46,1.91.69v4l-.71.89c0,.22,0,.43,0,.65h-6.75l-1.15-1.24c-.11-.34-.21-.67-.31-1v-.37l.18-1c.73-1.69,1.47-3.39-1.47-3.62a52.21,52.21,0,0,1-4-10.27c-.3-2,.95-4.16-.83-5.93-1.16,4.05-.19,8.2-.51,12.29-.12,1.57.34,3.18-.33,4.71-.17.46-.33.92-.5,1.37l-.21.15c-1.07,1.27-.37,2.79-.57,4.18-2.88.74-5.87,1.68-5.28-3.2a1.45,1.45,0,0,0-1.16-1.63c-1.1-.16-1.19,1.91-2.62,1.39-.22,1.3,1,.37,1.29.8a1.52,1.52,0,0,1-.53,2.47,6.44,6.44,0,0,1-4.39.22c-1.5-.34-.72-1.87-.75-2.85-.15-4.33-1.94-5.57-6.46-4.36.21,3-4.56,2.07-4.27,5.25.1,1.1.5,2.72-1.49,2.73-1.32,0-3.31.72-3.82-.47-.6-1.41-1-3.69.61-4.82,3.32-2.4,1.24-5.58,1.42-8.35.08-1.15-1.85-.85-2.88-.64s-1.79,1.64-3.52,1.36c4.3,2.06,3.17,7.17,2.15,7.93-2.29,1.72-2.86,6.43-7.36,5.09-1.26-.37-2.73-.06-4.1-.06-6.91,0-8.17-1.24-8.24-8.1s-.18-13.54-.22-20.31c0-5.91,0-5.91,6-5.34,0,4.78-.09,9.56,0,14.34.06,1.93-.33,3.26-3,3.83,3.45.22,2.65,2.77,3.38,4.39.18,3.3.81,5.43,4.57,5.21,1.73-.1.68-1.72,1-2.61,2.87-7.67,1.29-15.65,1.72-23.49.18-3.23,2.76-1.51,4.28-1.86,1.77-.41,2.33.47,2.29,2.22q-.17,6.63,0,13.27c0,1.08-1,3.1,1.48,2.9,2-.15,4.52.91,5.42-2.1,1.4-4.68,3-9.31,4.19-14,.6-2.31,2-2.28,3.85-2.33s2.82.2,3.32,2.27c1,4.25,2.66,8.37,3.67,12.63.52,2.2,2.27,3.69,2.71,5.83-1.18.53-.37,2,.65,1.72.8-.42.32-1,.09-1.55,1.88-.11,1.49-1.5,1.5-2.65q.09-6.53.14-13.05c.38-.24.16-.31,0-.71.5-1.46-1.73-4.11,1.37-4.32,2.42-.15,5.71-1.62,6.81,2.67,1.05,4.08,3.5,7.71,4.45,11.86Zm-28.17,6.29c4.47.79,5.57-.37,4.4-4.51-.61-2.17-1.17-4.36-1.85-6.92ZM302,259.75c1.14.11.78-1,.16-1.32-.44-.18-.63.19-.56.55A2.67,2.67,0,0,0,302,259.75Zm-16.94,5.7a2.21,2.21,0,0,0-.24.52c.19.42.47.09.73-.08Z" transform="translate(-92.64 -230.38)"/><path d="M343.38,259.61a8.27,8.27,0,0,1,.33,1.76c0,1.25.45,1.67,1.75,1.68,1.51,0,1.9-.6,1.89-2,.16-9-1.71-21,11.16-21,6.93-.1,10.4,4.26,10.58,10.54.12,2.61.33,5.13,4.45,4.63-1.92,1.06-3.94,1.7-3.55,4.07.21,1.26-.7,2.53.11,3.73,1.1,1.62,2.18,0,3.28,0,2.7.17,6.75-1.26,5.84,3.18-.47,2.46,1.18,2.59,2.92,2.37s4.09,0,3.38-2.77c-.3-1.17.44-1.74.51-2.63.13-1.95,0-3.45-2.65-3-1.37.21-2.11-.06-2.87-1.78s-3.61-.21-5.48-.88c.31-.8,1.62-1.09.4-2.59-3-3.7-2.89-9-.31-11.91s9.16-3.83,12.82-1.82c2.46,1.35,3.4,3.77,4,6.33.23,1-.12,1.81-1.19,1.89-1.35.1-2.91,1.07-4-.54-.34-.5-.38-1.26-.79-1.65-1.64-1.54-3.63-1.89-5.38-.45a2.79,2.79,0,0,0,.06,4.52c4,2.55,7.63,6,12.92,5.84.24,1-1.36.2-1.27,1.11,1.43,1.28,3.93-1,5,1.47h0c-3.79-.79-5.21.75-4.53,4.44.45,2.37-.34,4.6-1.1,6.77s-1.66,3.63-4.52,3.26c-3.66-.54-7.46.31-11.13-.37.54-3.36-2.33-4.78-3.91-7-.45-.61-.27-1.5-1.45-1.64-1.67-.21-.73,1.25-1.2,1.62-1.93,1.51-.89,4.64-2.72,5.7-3.88,2.25-8.37,1.61-12.69,1.56a1.29,1.29,0,0,1-1.26-1.12c-.55-2.91-3.56-4.41-4.15-7.24-.14-.69-.21-1.15-1.07-1-1.53.34-3.68-.66-4.16,1.91C343.39,264.3,343.38,262,343.38,259.61Zm8.52-4.11c3.14.2,2.59,2.13,2.59,3.84a28.39,28.39,0,0,0,.18,5.82c.37,1.88.33,3.4,3.1,3.11a4.4,4.4,0,0,0,4-3.73,69.78,69.78,0,0,0,.38-14.81c-.15-2.31-1-3.7-3.54-3.76-4.21-.24-4.21,3.6-4,6.71C354.86,254.44,353.86,255,351.9,255.5Z" transform="translate(-92.64 -230.38)"/><path d="M343.38,259.61c0,2.34,0,4.69,0,7,1.13.81-3.14,1.08-.31,1.61s1.61,2.29,1.76,3.59c.23,2.11-1.52,1.35-2.6,1.52-3.27.5-5.3-.23-4.68-4.17.21-1.37.69-3.11-1.85-3.58-1.12-.21-.51-2-.55-3s-.19-2-1.61-1.79c-.93.1-2.16-.33-2.27,1.18-.16,2.44-1.7,4.75-.15,7.38,2.3,5.1-1.89,5.2-5.81,4.55-1-.14-.61-1.45-.62-2.26,0-3.08.13-6.17-.07-9.23-.13-2,.78-2.57,2.71-2.62-1.85-.35-2.82-1-2.73-3,.23-4.67.18-9.36,0-14-.07-2.13.62-2.77,2.73-2.65,3.23.18,6.49-.07,9.71.12,4.52.28,6.76,2.41,7.17,6.86.35,3.8,1.21,7.8-2.39,10.8C341.29,258.34,341.39,258.46,343.38,259.61Zm-12.13-9.15c1,1.48-1.78,4.72,2.6,4.67,3.8,0,4.23-2.36,4.35-5.25s-1.14-4-4.17-4C329.69,245.72,332.1,248.81,331.25,250.46Z" transform="translate(-92.64 -230.38)"/><path d="M397.28,259.69h0l.9-.38.23,0,.23,0c2.75-4.93,3.53-10.51,5.3-15.77.65-1.94.9-3.5,3.68-3.56s3.55,1,4.11,3.43c1,4.14,2.71,8.13,3.42,12.31.4,2.33,3.25,2.83,3,5.64-.19,2-1.11,4.46.43,6.54.06.09-1.11,1-1,1.15.34.76-4.16.42-.41,1.86.65.25.36,1.34-.72,1.9a5.67,5.67,0,0,1-4.64.31c-1.46-.51-.72-2.14-1-3.27-.3-1.28.9-3.75-1-3.61-2.13.15-4.91-2.22-6.9,1.79-.82,1.65-2.36,3.07-2.89,5.34-.37,1.54-2.84.58-4.36.64-1.74.07-.56-1.23-.59-1.8,0-1.06-.63-2.58.37-3.13,2.58-1.41,1.72-3.67,1.83-5.7C397.3,262.15,397.27,260.92,397.28,259.69Zm10.81-7.62h-.7c-.59,2.44-1.26,4.86-1.74,7.32-.17.87-.89,2-.06,2.67a2.41,2.41,0,0,0,2.79-.06c.89-.71,2-1.51,1.58-3C409.32,256.69,408.71,254.38,408.09,252.07Z" transform="translate(-92.64 -230.38)"/><path d="M134.91,283q-17,0-34,0c-4.12,0-6.58-1.77-7.82-5.47-1.15-3.4-.16-5,3.42-4.85,2.69.13,3.31-.77,3.28-3.3-.13-11.45,0-22.9-.11-34.34,0-3.41,1-4.67,4.67-4.64q30.63.28,61.25,0c3.48,0,4.5,1,4.44,4.4-.19,11.44,0,22.89-.13,34.33,0,2.58.35,3.76,3.36,3.56,3.86-.26,4.56.89,3.49,4.53-1.16,3.9-3.47,5.76-7.5,5.77C157.81,283,146.36,283,134.91,283Zm-.24-48.9c-9.46,0-18.91.09-28.37-.06-2.49,0-3.08.71-3,3.08q.18,16.23,0,32.47c0,2.37.56,3.09,3,3.08q28.56-.17,57.12,0c2.45,0,3.19-.66,3.16-3.11q-.18-16.23,0-32.47c0-2.51-.82-3-3.17-3C153.84,234.16,144.25,234.09,134.67,234.09ZM96.78,276.15c.31,2.3,1.42,3.18,3.53,3.18q34.56,0,69.12,0c1.67,0,3.42-.51,3.35-2.14-.09-1.95-2.19-1.06-3.27-1-9.43.67-18.86-1.08-28.39,1.3-5,1.26-10.8-.1-16.34-1C115.68,275.1,106.19,276.15,96.78,276.15Z" transform="translate(-92.64 -230.38)"/><path d="M141,244.72c-2.88,7.07-6.76,13.81-10.11,20.69-.49,1-1.12,2.5-2.78,1.55-1.44-.83-1-2-.38-3.21,3.19-6.35,6.35-12.7,9.57-19,.49-1,1.05-2,2.52-1.72C140.78,243.18,140.89,243.86,141,244.72Z" transform="translate(-92.64 -230.38)"/><path d="M153.29,254.87c-2,3-5,5.34-7.51,8-.82.8-1.81,1.46-2.89.35s-.43-2.06.33-2.91c1.63-1.83,4.43-3.47,4.7-5.44.28-2.15-3.1-3.45-4.55-5.39-.62-.82-1.62-1.74-.53-2.89s2.25-.76,3.21.19q3.16,3.14,6.22,6.36A9.3,9.3,0,0,1,153.29,254.87Z" transform="translate(-92.64 -230.38)"/><path d="M124,245.9c1.4.07,1.79.65,1.78,1.7-.34,3.07-5.85,4.44-5.58,7.16.18,1.95,2.9,3.72,4.64,5.44,1,1,1.53,2.14.5,3.17-1.54,1.41-3.14-.85-4.26-1.84-7.13-6.91-6.87-9.39,1.57-15A7.54,7.54,0,0,1,124,245.9Z" transform="translate(-92.64 -230.38)"/></svg>